<svg xmlns="http://www.w3.org/2000/svg" viewBox="0 0 1548.85 1693.84"><defs><style>.cls-1{fill:#8b3d81;}</style></defs><title>Asset 1</title><g id="Layer_2" data-name="Layer 2"><g id="ARTWORK_HERE" data-name="ARTWORK HERE"><path class="cls-1" d="M1256.91,1072.92c-4.12-.89-8.21-1.81-12.35-2.54-13.23-12.27-23.75-29.42-31.86-49.91-20.4-51.37-26.39-124.39-25.84-196.92,1.15-130.6,24.07-260,24.07-260v0c0-18.08-.43-35.44-1.11-52.41-.23-5.37-.58-10.49-.85-15.74-.62-11.46-1.28-22.75-2.27-33.7-.51-5.78-1.08-11.37-1.62-17-1-10.1-2.2-20-3.54-29.58-.7-5.4-1.39-10.81-2.2-16.08-1.47-9.84-3.13-19.48-4.86-28.85-.88-4.31-1.58-8.75-2.43-13-2.65-12.8-5.47-25.26-8.52-37.21a11.6,11.6,0,0,1-.38-1.39c-3.27-12.54-6.75-24.41-10.52-35.87-1.2-3.43-2.35-6.68-3.54-10-2.58-7.9-5.47-15.69-8.37-23.15-1.43-3.74-2.94-7.45-4.44-11-2.75-6.76-5.78-13.35-8.75-19.71-1.59-3.5-3.17-7-4.82-10.33q-4.92-9.66-9.85-18.63c-1.58-2.83-3.12-5.71-4.66-8.42-4.45-7.71-9.23-15.22-13.86-22.32-.43-.69-.84-1.47-1.39-2.2-5.29-7.83-10.73-15.26-16.16-22.25-1.62-2-3.28-4-5-5.91-4-4.89-7.91-9.63-12-14.15-2.13-2.24-4.2-4.36-6.29-6.66-3.71-4-7.53-7.83-11.38-11.54-2.13-2.09-4.24-4.12-6.37-6.06-4-3.67-8-7.09-12.14-10.52-2-1.65-4-3.35-5.9-4.89-5.14-4.05-10.34-7.94-15.59-11.58-.81-.66-1.73-1.35-2.5-1.92-6.06-4.23-12.23-8.13-18.39-11.8-1.77-1-3.56-2-5.29-3-4.36-2.58-8.79-5-13-7.13-2.32-1.21-4.52-2.28-6.76-3.39-4-1.92-7.79-3.75-11.69-5.48-2.31-1-4.51-2-6.79-2.9-4-1.69-7.83-3.16-11.84-4.63l-6.06-2.31c-4.59-1.66-9.26-3.16-13.72-4.52-1.24-.37-2.58-.84-3.74-1.18-5.71-1.7-11.22-3.17-16.66-4.52-1.84-.43-3.5-.77-5.25-1.15-3.71-.85-7.44-1.73-11-2.43-2.09-.39-4.2-.81-6.18-1.14C880.14,5.23,877,4.71,874,4.23c-2.09-.33-4.12-.62-6-.84-2.93-.4-5.91-.77-8.79-1.08-1.94-.18-3.72-.43-5.49-.62-3-.26-5.91-.54-8.79-.73-1.51-.08-3-.26-4.31-.34-4-.26-7.68-.34-11.29-.51-1.66,0-3.09,0-4.75,0s-3.67,0-5.4,0c-8.83,0-15.88.34-20.87.77a11.87,11.87,0,0,0-1.69.11c-1.81.12-3.24.27-4.28.38a7.74,7.74,0,0,0-1.14.15,12.27,12.27,0,0,0-1.59.15c-5.13-.34-10.25-.55-15.3-.73-5,.15-10.1.39-15.3.65,0,0-.62,0-1.58-.15-.34,0-.81-.07-1.11-.11-1-.11-2.54-.26-4.27-.39-.47,0-1,0-1.69-.08-5-.45-12-.79-20.82-.79h-5.63c-1.54,0-2.86,0-4.44,0-3.59.11-7.45.3-11.42.51-1.19.07-2.51.18-3.75.3-3,.19-6.06.43-9.33.81-1.7.11-3.43.33-5.08.54-3,.34-6.1.74-9.3,1.15-1.85.26-3.67.55-5.55.81-3.35.51-6.67,1.07-10.11,1.73-1.81.34-3.63.62-5.48,1-4,.81-7.94,1.73-12.14,2.62-1.39.34-2.73.66-4.23,1-5.63,1.31-11.33,2.82-17.05,4.59-.92.22-1.85.58-2.79.85-4.78,1.5-9.67,3.08-14.58,4.81-1.89.66-3.79,1.4-5.71,2.13-4.12,1.54-8.2,3.16-12.34,4.89-2.09.85-4.24,1.77-6.29,2.73-4.12,1.73-8.2,3.75-12.35,5.74-2,1-4.15,2-6.21,3.09-4.51,2.35-9.18,4.93-13.77,7.6-1.51.93-3.09,1.7-4.63,2.66-6.18,3.7-12.39,7.64-18.63,11.95-.59.39-1.15.84-1.7,1.24Q518.79,68.5,510.62,75c-1.84,1.43-3.67,3-5.51,4.48-4.24,3.5-8.38,7.13-12.54,10.88-2.09,2-4.16,3.93-6.17,5.85-4,3.78-7.87,7.76-11.76,11.88-2,2.09-4,4.19-5.91,6.32-4.2,4.63-8.3,9.52-12.39,14.51-1.5,1.88-3,3.6-4.51,5.55q-8.38,10.59-16.36,22.38c-.39.58-.73,1.24-1.11,1.77-4.85,7.25-9.48,14.85-14.23,22.79-1.5,2.62-2.9,5.44-4.44,8.17-3.35,6.14-6.72,12.42-10,18.93-1.65,3.35-3.19,6.72-4.78,10.19q-4.45,9.7-8.86,20c-1.43,3.6-3,7.17-4.37,10.84-2.93,7.57-5.77,15.44-8.48,23.49-1.08,3.28-2.32,6.36-3.32,9.71-3.78,11.54-7.36,23.49-10.61,36-.11.47-.27,1-.34,1.5-3.05,11.92-6,24.34-8.49,37.14-.81,4.23-1.54,8.64-2.39,12.87-1.73,9.37-3.42,19.08-4.93,29-.81,5.22-1.47,10.62-2.2,16-1.28,9.64-2.5,19.48-3.43,29.66-.62,5.67-1.14,11.26-1.65,17.05-.89,10.88-1.7,22.18-2.32,33.6-.3,5.29-.66,10.41-.84,15.85-.7,16.93-1.15,34.32-1.15,52.37v0s22.9,129.43,24.07,260c.69,72.55-5.37,145.52-25.8,197-8.21,20.48-18.6,37.64-31.87,49.8-4.27.81-8.26,1.69-12.27,2.65-21.76,5-92.67,11-164.34,87.42-43.59,46.51-87.48,119-120.71,233.25a161.86,161.86,0,0,0-5.91,31.31c-3,31.55,3.08,63.49,17.58,90.87,71.93,136,450.26,177.85,756.09,177.85S1458.67,1652,1530.58,1516a165,165,0,0,0,17.58-90.9,211,211,0,0,0-6.29-31.51c-33.2-114.35-77.09-186.73-120.64-233.16C1349.54,1084,1278.55,1077.94,1256.91,1072.92Zm-819.84-533a15.21,15.21,0,0,1,6.21-2.65c5-.85,10.26,1,15.36,5.17a9.13,9.13,0,0,1,.11-1.14c1.77-17.28,24.77-211.15,169.93-197.69L1072.43,572l36.06-34.71a15.27,15.27,0,0,1,3.56,1.15c15.69,7.44,22.53,44.32,14.92,86.46-5.74,32.32-18.35,59-31.69,70.35-5.4,4.48-10.92,6.63-16.09,5.75a15.7,15.7,0,0,1-8.13-4.24c-29.63,92.05-86.16,183.76-157.55,238.93-41.69,32.09-88.36,51.72-137.76,51.72-49.67,0-96.65-19.9-138.5-52.38-71-55.18-127.34-146.59-156.78-238.27a16.43,16.43,0,0,1-8.05,4.24c-6,1.07-12.54-2-18.67-8.17-12.43-12.5-23.83-37.72-29.27-67.93C417.37,585.13,423,550,437.07,539.92Zm34.44,994.48a35.41,35.41,0,0,1-22.71,8.22H409.5a35.8,35.8,0,0,1-35.76-35.76l.13-2.52a36,36,0,0,1,35.65-33.22H448.8a35.07,35.07,0,0,1,11.74,2,11.15,11.15,0,0,0,3.12-1.23c4.39-7.75,4.39-40.07,4.39-55.57,0-31.23-7.83-69-21.57-104.16a40.15,40.15,0,0,1-16.39-17.56c-23.85-49.87-56.24-82.11-82.59-82.11-26.93,0-60.94,34.86-84.65,86.67a40.46,40.46,0,0,1-19.05,19.4c-12.38,33.6-19.19,68.15-19.19,97.74,0,13,0,47.61,5,55.72a19.73,19.73,0,0,0,4.28,1.44,36,36,0,0,1,12.81-2.36h39.38a35.76,35.76,0,0,1,35.45,31.58l.21.4.08,2.35c0,21.12-16,37.17-35.73,37.17H246.7a35.38,35.38,0,0,1-21.57-7.38c-22.47-4.21-38.33-14.13-48.38-30.28-12.14-19.53-14.36-45.17-14.36-88.64,0-38.15,8.8-82,24.8-124a39.63,39.63,0,0,1,2.34-26.8c16.67-36.44,37.86-67.64,61.27-90.21A168.8,168.8,0,0,1,292,1145.64a63.35,63.35,0,0,1,25.39-29.42c5.84-32.86,24.24-67.66,51.08-96.15,37-39.3,83.39-60.9,130.73-60.9h9.41v.19a31,31,0,0,1,0,61.95v.11H507.4c-.2,0-.37.08-.54.08s-.38-.08-.55-.08h-7.13c-58.29,0-106.58,55.26-118.78,98.12A62.73,62.73,0,0,1,400,1144c40.2,19,75.72,58.89,102.91,115.75a40.24,40.24,0,0,1,1.81,30.24c16.3,42,25.62,87.8,25.62,126.31C530.33,1470.27,530.33,1521.3,471.51,1534.4Zm302.67-181.94s-233.63-221-271.86-269.81c-8.05-10.45-13.12-21.4-14.49-32.82v0c1.88-.7,6.21-2.2,12-4.86a77.54,77.54,0,0,0,7.6-3.78c23.13-12.1,57.08-37.38,57.08-81.91h0c36.44,36.06,77,64.76,120.36,81.91,29.11,11.57,59.51,18,90.71,18s61.6-6.4,90.72-18c42.93-17,83-45.21,119.36-80.91.26.15.5.26.77.39.84,57.31,58.43,82.46,74,88.25a2.82,2.82,0,0,1-.08.93c-1.31,11.36-6.43,22.37-14.51,32.82C1007.75,1131.43,774.18,1352.46,774.18,1352.46Zm395.42,169.65c0,6.49-5.89,11.76-13.15,11.76h-71.54v71.5c0,7.28-5.27,13.19-11.74,13.19h-70.6c-6.49,0-11.74-5.91-11.74-13.19v-71.5H919.29c-7.27,0-13.18-5.27-13.18-11.76v-70.58c0-6.51,5.91-11.76,13.18-11.76h71.54v-71.54c0-7.28,5.25-13.16,11.74-13.16h70.6c6.47,0,11.74,5.9,11.74,13.16v71.54h71.54c7.28,0,13.15,5.25,13.15,11.76Zm86.86-251.77a104.43,104.43,0,0,1-92.17,55.21h0a104.87,104.87,0,0,1-49.18-12.37,104,104,0,0,1,19.19-191.65c-9.26-36.3-34.14-79.78-77.86-94.14L1046,1024c-.86-.3-1.77-.49-2.6-.85L1040,1022l.21-.62a31.26,31.26,0,0,1,15.55-58.44,27.8,27.8,0,0,1,3.53.38l.17-.47,2.21.71a30,30,0,0,1,7.19,2.35l7,2.3c45,14.81,82.34,49.84,105.19,98.7a211.59,211.59,0,0,1,17.37,55.57,102.31,102.31,0,0,1,15.21,6.55A104.58,104.58,0,0,1,1256.46,1270.34Z"/><circle class="cls-1" cx="1164.35" cy="1221.09" r="56.46"/></g></g></svg>