<?xml version="1.0" encoding="utf-8"?>
<!-- Generator: Adobe Illustrator 24.0.2, SVG Export Plug-In . SVG Version: 6.00 Build 0)  -->
<svg version="1.1" id="Layer_1" xmlns="http://www.w3.org/2000/svg" xmlns:xlink="http://www.w3.org/1999/xlink" x="0px" y="0px"
	 viewBox="0 0 100 100" style="enable-background:new 0 0 100 100;" xml:space="preserve">
<style type="text/css">
	.st0{display:none;}
	.st1{display:inline;}
	.st2{fill:#893B80;}
</style>
<g class="st0">
	<circle class="st1" cx="50" cy="50" r="50"/>
</g>
<g id="Layer_2_1_">
	<g id="BACKGROUND_Image">
		<path class="st2" d="M1.5,84.7c3.8,0,7.4,0,10.9,0c0.3,0,0.9-0.7,1-1.2c1.2-4.4,2.3-8.9,3.5-13.3c0.1-0.3,0.2-0.6,0.3-0.8h0.4
			c0.1,1,0.3,2.1,0.3,3.1c0.3,3.6,0.5,7.3,0.7,10.9c0,1,0.4,1.3,1.4,1.3c8.6,0,17.2,0,25.8,0c0.9,0,1.2-0.4,1.3-1.3
			c0.5-5.3,1-10.5,1.6-15.8c0.2-1.6,0.4-3.1,0.5-4.7c0-1.1,0.6-1.4,1.5-1.4c5.6-0.3,11.2-0.6,16.8-1c6.2-0.5,12.5-0.9,18.3-3.8
			c0.7-0.3,1.5-0.8,2.1-1.2c2.2-1.5,2.7-3,1.9-5.5c-0.5-2.1-2.5-3.5-4.7-3.3c-2.4,0.1-4.9,0.5-7.3,0.8c-7.1,0.9-14.3,0.8-21.3-0.3
			c-9.9-1.4-19.8-2.9-29.8-2c-3,0.3-5.9,0.7-8.9,1.4c-4,0.9-7.2,3.7-8.7,7.5c-2.8,6.2-4,12.9-5.5,19.6c-0.6,2.9-1.2,5.9-1.8,8.8
			C1.7,83.2,1.6,83.8,1.5,84.7z"/>
		<path class="st2" d="M52.2,84.7h12.7c4.8,0,9.5-0.1,14.2,0c1.6,0,2.1-0.6,2.1-2c0.2-3,0.4-6,0.7-9c0-0.4,0.1-0.7,0.3-1.6
			c0.3,0.5,0.6,1,0.8,1.5c1,3.1,2,6.2,3,9.3c0.1,1.1,1.1,1.9,2.3,1.8c0,0,0.1,0,0.1,0c3.2-0.1,6.4,0,10.1,0
			c-2-8.8-3.9-17.3-5.8-25.9c-2.1,1.1-3.9,2.2-5.7,3c-5,2-10.2,3.3-15.6,3.6c-5.3,0.4-10.5,0.7-15.8,1.1c-0.7,0-1.6-0.1-1.7,1
			C53.3,73.1,52.8,78.7,52.2,84.7z"/>
		<path class="st2" d="M44.6,27.6c0-6.8-5.4-12.3-12.1-12.4c-6.5,0-12.3,5.5-12.3,11.8c0,7.4,5.1,12.7,12,12.8
			c6.7,0.2,12.2-5.1,12.4-11.7C44.6,27.9,44.6,27.8,44.6,27.6z"/>
		<path class="st2" d="M67.2,19.7c-6.3-0.1-11.6,4.9-11.7,11.2c0,0.2,0,0.4,0,0.6C55.7,38,61.1,43.1,67.6,43
			c6.3-0.3,11.2-5.5,11.1-11.8c0-6.3-5.1-11.5-11.4-11.5C67.3,19.7,67.3,19.7,67.2,19.7z"/>
	</g>
</g>
</svg>
